<svg width="110" height="124" viewBox="0 0 110 124" fill="none" xmlns="http://www.w3.org/2000/svg">
<path d="M56.2787 8.06971C55.458 7.69712 54.542 7.69712 53.7213 8.06971L12.6912 26.6583L55 45.8231L97.3088 26.6583L56.2787 8.06971ZM103.125 32.4132L58.4375 52.6604V114.352L103.125 94.105V32.4209V32.4132ZM51.5625 114.36V52.6526L6.875 32.4132V94.1128L51.5625 114.36ZM51.1706 0.835204C53.6289 -0.278401 56.3711 -0.278401 58.8294 0.835204L107.841 23.0449C108.478 23.3342 109.025 23.8329 109.409 24.4769C109.794 25.1209 110 25.8807 110 26.6583V94.1128C109.999 95.6689 109.587 97.189 108.816 98.4771C108.045 99.7652 106.951 100.762 105.676 101.34L56.2787 123.721C55.458 124.093 54.542 124.093 53.7213 123.721L4.33125 101.34C3.05423 100.763 1.95898 99.767 1.18691 98.4788C0.414849 97.1906 0.00141851 95.6698 0 94.1128L0 26.6583C0.000159775 25.8807 0.205863 25.1209 0.590611 24.4769C0.975358 23.8329 1.52152 23.3342 2.15875 23.0449L51.1706 0.835204Z" fill="#B2410A"/>
</svg>
