<svg width="47" height="51" viewBox="0 0 47 51" fill="none" xmlns="http://www.w3.org/2000/svg">
<path d="M46.125 5.36775C46.111 3.96985 45.5242 2.63357 44.4917 1.64865C43.4592 0.663726 42.0643 0.109541 40.6094 0.10625L5.61404 0C4.16064 0.000276487 2.76666 0.554295 1.73771 1.54059C0.708758 2.52689 0.128805 3.86498 0.125 5.2615V39.95C0.125 42.8506 2.58865 45.05 5.61404 45.05H35.5096L34.0721 40.375L46.125 51V5.36775ZM30.7161 33.3423C30.7161 33.3423 29.7519 32.2384 28.9469 31.2896C32.4566 30.3397 33.7957 28.2625 33.7957 28.2625C32.8317 28.8769 31.7987 29.3848 30.7161 29.7766C29.4662 30.2752 28.1648 30.6453 26.8337 30.8805C24.5403 31.2853 22.1885 31.2766 19.8984 30.855C18.5513 30.6146 17.2328 30.2444 15.9629 29.75C15.2912 29.5028 14.6379 29.2113 14.0079 28.8777C13.9272 28.8267 13.8476 28.8012 13.7669 28.7491C13.7127 28.7236 13.6862 28.6981 13.6563 28.6981C13.1742 28.441 12.9066 28.2614 12.9066 28.2614C12.9066 28.2614 14.1915 30.2898 17.5928 31.2641C16.7889 32.2394 15.7982 33.3689 15.7982 33.3689C9.8812 33.1893 7.63207 29.4939 7.63207 29.4939C7.63207 21.3063 11.4879 14.6593 11.4879 14.6593C15.3437 11.9128 18.985 11.9903 18.985 11.9903L19.2526 12.2984C14.4325 13.6074 12.2376 15.6347 12.2376 15.6347C12.2376 15.6347 12.8259 15.3266 13.8166 14.9154C16.6817 13.7094 18.9585 13.4013 19.8984 13.2993C20.0484 13.2694 20.2008 13.2519 20.3539 13.2472C22.1482 13.0235 23.9638 13.0064 25.7623 13.1962C28.5861 13.5079 31.3219 14.3356 33.8222 15.6347C33.8222 15.6347 31.7069 13.7063 27.1544 12.3994L27.5293 11.9893C27.5293 11.9893 31.1971 11.9117 35.0275 14.6625C35.0275 14.6625 38.8833 21.3095 38.8833 29.4971C38.8833 29.4674 36.6331 33.1628 30.7161 33.3423Z" fill="#CCCCCC"/>
<path d="M18.2652 21.4624C16.7392 21.4624 15.5339 22.7204 15.5339 24.2854C15.5339 25.8504 16.7658 27.1084 18.2652 27.1084C19.7911 27.1084 20.9964 25.8515 20.9964 24.2854C21.0241 22.7172 19.7911 21.4624 18.2652 21.4624ZM28.0379 21.4624C26.512 21.4624 25.3067 22.7204 25.3067 24.2854C25.3067 25.8504 26.5385 27.1084 28.0379 27.1084C29.565 27.1084 30.7692 25.8515 30.7692 24.2854C30.7692 22.7193 29.5384 21.4624 28.0379 21.4624Z" fill="#CCCCCC"/>
</svg>
