<svg width="100" height="115" viewBox="0 0 100 115" fill="none" xmlns="http://www.w3.org/2000/svg">
<path d="M50 7.66667C38.9493 7.66667 28.3512 11.7053 20.5372 18.8942C12.7232 26.0831 8.33333 35.8334 8.33333 46V53.6667H16.6667C18.8768 53.6667 20.9964 54.4744 22.5592 55.9122C24.122 57.35 25 59.3 25 61.3333V84.3333C25 86.3667 24.122 88.3167 22.5592 89.7545C20.9964 91.1923 18.8768 92 16.6667 92H8.33333C6.1232 92 4.00358 91.1923 2.44078 89.7545C0.877973 88.3167 0 86.3667 0 84.3333V46C-9.78424e-08 39.9592 1.29329 33.9775 3.80602 28.3966C6.31876 22.8156 10.0017 17.7446 14.6447 13.4731C19.2876 9.20159 24.7995 5.81326 30.8658 3.50154C36.9321 1.18983 43.4339 0 50 0C56.5661 0 63.0679 1.18983 69.1342 3.50154C75.2004 5.81326 80.7124 9.20159 85.3553 13.4731C89.9983 17.7446 93.6812 22.8156 96.194 28.3966C98.7067 33.9775 100 39.9592 100 46V92C100 97.0833 97.8051 101.958 93.8981 105.553C89.991 109.147 84.692 111.167 79.1667 111.167H61.3833C60.6519 112.332 59.6 113.3 58.3332 113.973C57.0664 114.646 55.6294 115 54.1667 115H45.8333C43.6232 115 41.5036 114.192 39.9408 112.754C38.378 111.317 37.5 109.367 37.5 107.333C37.5 105.3 38.378 103.35 39.9408 101.912C41.5036 100.474 43.6232 99.6667 45.8333 99.6667H54.1667C55.6294 99.6667 57.0664 100.021 58.3332 100.694C59.6 101.367 60.6519 102.335 61.3833 103.5H79.1667C82.4819 103.5 85.6613 102.288 88.0055 100.132C90.3497 97.9751 91.6667 95.05 91.6667 92H83.3333C81.1232 92 79.0036 91.1923 77.4408 89.7545C75.878 88.3167 75 86.3667 75 84.3333V61.3333C75 59.3 75.878 57.35 77.4408 55.9122C79.0036 54.4744 81.1232 53.6667 83.3333 53.6667H91.6667V46C91.6667 40.966 90.5889 35.9813 88.495 31.3305C86.401 26.6797 83.3319 22.4538 79.4628 18.8942C75.5937 15.3347 71.0004 12.511 65.9451 10.5846C60.8899 8.65819 55.4717 7.66667 50 7.66667Z" fill="#B2410A"/>
</svg>
