<svg width="57" height="57" viewBox="0 0 57 57" fill="none" xmlns="http://www.w3.org/2000/svg">
<path d="M1 12C1 9.08262 2.15847 6.28472 4.22057 4.22182C6.28266 2.15893 9.07947 1 11.9957 1H44.9828C47.8991 1 50.6959 2.15893 52.758 4.22182C54.8201 6.28472 55.9785 9.08262 55.9785 12V45C55.9785 47.9174 54.8201 50.7153 52.758 52.7782C50.6959 54.8411 47.8991 56 44.9828 56H11.9957C9.07947 56 6.28266 54.8411 4.22057 52.7782C2.15847 50.7153 1 47.9174 1 45V12Z" stroke="#B2410A" stroke-width="2" stroke-linecap="round" stroke-linejoin="round"/>
<path d="M18.8899 25.75C22.6854 25.75 25.7622 22.6719 25.7622 18.875C25.7622 15.078 22.6854 12 18.8899 12C15.0944 12 12.0176 15.078 12.0176 18.875C12.0176 22.6719 15.0944 25.75 18.8899 25.75Z" stroke="#B2410A" stroke-width="2" stroke-linecap="round" stroke-linejoin="round"/>
<path d="M35.4549 30.2077L12.0176 56H45.3703C48.1896 56 50.8934 54.8796 52.8869 52.8853C54.8805 50.891 56.0004 48.1861 56.0004 45.3657V45C56.0004 43.7185 55.5193 43.2262 54.6534 42.2775L43.5753 30.1912C43.0589 29.6278 42.4309 29.1782 41.7312 28.8712C41.0315 28.5641 40.2755 28.4063 39.5115 28.4079C38.7474 28.4094 37.9921 28.5703 37.2936 28.8802C36.5952 29.1901 35.969 29.6422 35.4549 30.2077V30.2077Z" stroke="#B2410A" stroke-width="2" stroke-linecap="round" stroke-linejoin="round"/>
</svg>
