<svg width="48" height="44" viewBox="0 0 48 44" fill="none" xmlns="http://www.w3.org/2000/svg">
<path d="M33.9996 3.66634C36.6496 3.67359 39.1887 4.64176 41.0625 6.3594C42.9363 8.07704 43.9924 10.4046 44.0004 12.8337V31.1663C43.9924 33.5954 42.9363 35.923 41.0625 37.6406C39.1887 39.3582 36.6496 40.3264 33.9996 40.3337H14.0004C11.3504 40.3264 8.81131 39.3582 6.93753 37.6406C5.06374 35.923 4.00756 33.5954 3.99964 31.1663V12.8337C4.00756 10.4046 5.06374 8.07704 6.93753 6.3594C8.81131 4.64176 11.3504 3.67359 14.0004 3.66634H33.9996V3.66634ZM33.9996 0H14.0004C6.3 0 0 5.775 0 12.8337V31.1663C0 38.225 6.3 44 14.0004 44H33.9996C41.7 44 48 38.225 48 31.1663V12.8337C48 5.775 41.7 0 33.9996 0V0Z" fill="#CCCCCC"/>
<path d="M36.9996 12.8336C36.4063 12.8336 35.8263 12.6723 35.3329 12.3701C34.8396 12.0679 34.4551 11.6384 34.228 11.1359C34.0009 10.6334 33.9415 10.0805 34.0573 9.54703C34.173 9.01357 34.4588 8.52356 34.8783 8.13896C35.2979 7.75436 35.8324 7.49245 36.4144 7.38634C36.9963 7.28023 37.5995 7.33469 38.1477 7.54283C38.6959 7.75098 39.1644 8.10345 39.4941 8.5557C39.8237 9.00794 39.9996 9.53963 39.9996 10.0835C40.0005 10.4449 39.9235 10.8028 39.773 11.1368C39.6225 11.4708 39.4016 11.7743 39.1229 12.0298C38.8441 12.2854 38.5131 12.4879 38.1487 12.6258C37.7843 12.7637 37.3939 12.8344 36.9996 12.8336ZM24 14.6663C25.5823 14.6663 27.1291 15.0964 28.4448 15.9022C29.7604 16.7081 30.7858 17.8535 31.3914 19.1935C31.9969 20.5336 32.1553 22.0082 31.8466 23.4308C31.5379 24.8534 30.776 26.1601 29.6571 27.1858C28.5382 28.2114 27.1127 28.9099 25.5608 29.1929C24.0089 29.4759 22.4003 29.3306 20.9384 28.7756C19.4765 28.2205 18.227 27.2805 17.348 26.0745C16.4689 24.8684 15.9996 23.4505 15.9996 22C16.0019 20.0556 16.8455 18.1915 18.3454 16.8166C19.8453 15.4417 21.8789 14.6684 24 14.6663ZM24 10.9999C21.6266 10.9999 19.3066 11.645 17.3332 12.8537C15.3598 14.0625 13.8217 15.7804 12.9135 17.7905C12.0052 19.8005 11.7676 22.0122 12.2306 24.1461C12.6936 26.2799 13.8365 28.2399 15.5147 29.7783C17.193 31.3167 19.3311 32.3644 21.6589 32.7888C23.9867 33.2133 26.3995 32.9954 28.5922 32.1629C30.7849 31.3303 32.6591 29.9204 33.9776 28.1114C35.2962 26.3024 36 24.1757 36 22C36 19.0826 34.7357 16.2847 32.4853 14.2218C30.2348 12.1588 27.1826 10.9999 24 10.9999Z" fill="#CCCCCC"/>
</svg>
