<svg width="25" height="25" viewBox="0 0 25 25" fill="none" xmlns="http://www.w3.org/2000/svg">
<path d="M12.5002 4.58007L11.3799 3.35174C8.7501 0.468413 3.92808 1.46341 2.1874 5.0884C1.37019 6.79339 1.18581 9.25505 2.67804 12.3967C4.11559 15.4217 7.1063 19.045 12.5002 22.9917C17.8941 19.045 20.8833 15.4217 22.3224 12.3967C23.8146 9.25338 23.6318 6.79339 22.813 5.0884C21.0724 1.46341 16.2503 0.466746 13.6206 3.35007L12.5002 4.58007ZM12.5002 25C-11.4583 8.11339 5.12343 -5.06657 12.2252 1.90507C12.319 1.99674 12.4112 2.09174 12.5002 2.19007C12.5884 2.09183 12.6801 1.99731 12.7752 1.90674C19.8754 -5.0699 36.4588 8.11172 12.5002 25Z" fill="white"/>
</svg>
