<svg width="110" height="110" viewBox="0 0 110 110" fill="none" xmlns="http://www.w3.org/2000/svg">
<g clip-path="url(#clip0_146_97)">
<path d="M96.25 6.875C98.0734 6.875 99.822 7.59933 101.111 8.88864C102.401 10.178 103.125 11.9266 103.125 13.75V96.25C103.125 98.0734 102.401 99.822 101.111 101.111C99.822 102.401 98.0734 103.125 96.25 103.125H13.75C11.9266 103.125 10.178 102.401 8.88864 101.111C7.59933 99.822 6.875 98.0734 6.875 96.25V13.75C6.875 11.9266 7.59933 10.178 8.88864 8.88864C10.178 7.59933 11.9266 6.875 13.75 6.875H96.25ZM13.75 0C10.1033 0 6.60591 1.44866 4.02728 4.02728C1.44866 6.60591 0 10.1033 0 13.75L0 96.25C0 99.8967 1.44866 103.394 4.02728 105.973C6.60591 108.551 10.1033 110 13.75 110H96.25C99.8967 110 103.394 108.551 105.973 105.973C108.551 103.394 110 99.8967 110 96.25V13.75C110 10.1033 108.551 6.60591 105.973 4.02728C103.394 1.44866 99.8967 0 96.25 0L13.75 0Z" fill="#B2410A"/>
<path d="M41.25 75.6875C41.25 74.7758 41.6122 73.9015 42.2568 73.2568C42.9015 72.6122 43.7758 72.25 44.6875 72.25H65.3125C66.2242 72.25 67.0985 72.6122 67.7432 73.2568C68.3878 73.9015 68.75 74.7758 68.75 75.6875C68.75 76.5992 68.3878 77.4735 67.7432 78.1182C67.0985 78.7628 66.2242 79.125 65.3125 79.125H44.6875C43.7758 79.125 42.9015 78.7628 42.2568 78.1182C41.6122 77.4735 41.25 76.5992 41.25 75.6875ZM27.5 55.0625C27.5 54.1508 27.8622 53.2765 28.5068 52.6318C29.1515 51.9872 30.0258 51.625 30.9375 51.625H79.0625C79.9742 51.625 80.8485 51.9872 81.4932 52.6318C82.1378 53.2765 82.5 54.1508 82.5 55.0625C82.5 55.9742 82.1378 56.8485 81.4932 57.4932C80.8485 58.1378 79.9742 58.5 79.0625 58.5H30.9375C30.0258 58.5 29.1515 58.1378 28.5068 57.4932C27.8622 56.8485 27.5 55.9742 27.5 55.0625ZM13.75 34.4375C13.75 33.5258 14.1122 32.6515 14.7568 32.0068C15.4015 31.3622 16.2758 31 17.1875 31H92.8125C93.7242 31 94.5985 31.3622 95.2432 32.0068C95.8878 32.6515 96.25 33.5258 96.25 34.4375C96.25 35.3492 95.8878 36.2235 95.2432 36.8682C94.5985 37.5128 93.7242 37.875 92.8125 37.875H17.1875C16.2758 37.875 15.4015 37.5128 14.7568 36.8682C14.1122 36.2235 13.75 35.3492 13.75 34.4375Z" fill="#B2410A"/>
</g>
<defs>
<clipPath id="clip0_146_97">
<rect width="110" height="110" fill="white"/>
</clipPath>
</defs>
</svg>
