<svg width="55" height="33" viewBox="0 0 55 33" fill="none" xmlns="http://www.w3.org/2000/svg">
<path fill-rule="evenodd" clip-rule="evenodd" d="M53.7053 2.29167C54.1132 0.999167 53.7053 0.0595829 51.9006 0.0595829H45.8998C44.3862 0.0595829 43.6872 0.882291 43.2793 1.76229C43.2793 1.76229 40.1924 9.27896 35.8818 14.1522C34.4839 15.5616 33.8434 16.0314 33.086 16.0314C32.6781 16.0314 32.1533 15.5616 32.1533 14.2702V2.23094C32.1533 0.704688 31.6881 0 30.4059 0H20.9688C20.0361 0 19.454 0.704688 19.454 1.40938C19.454 2.87719 21.6093 3.2301 21.8419 7.34021V16.2708C21.8419 18.2084 21.4982 18.5625 20.735 18.5625C18.6966 18.5625 13.7454 10.9874 10.7754 2.35583C10.1979 0.64625 9.61126 0 8.09647 0H2.03844C0.291042 0 0 0.821563 0 1.70271C0 3.28854 2.03844 11.2739 9.49439 21.843C14.4455 29.0618 21.4936 32.9416 27.8426 32.9416C31.6881 32.9416 32.1533 32.0604 32.1533 30.5926V25.1316C32.1533 23.3704 32.5028 23.0771 33.7265 23.0771C34.5996 23.0771 36.1729 23.5457 39.7261 27.0107C43.803 31.1208 44.5019 33 46.7741 33H52.7737C54.5211 33 55.3369 32.1189 54.8706 30.4161C54.3469 28.7134 52.3658 26.2476 49.8026 23.312C48.4046 21.6689 46.3078 19.8481 45.6672 18.967C44.7941 17.7925 45.0267 17.3227 45.6672 16.2663C45.6088 16.2663 52.949 5.81396 53.7053 2.28708" fill="#CCCCCC"/>
</svg>
