<svg width="46" height="43" viewBox="0 0 46 43" fill="none" xmlns="http://www.w3.org/2000/svg">
<path fill-rule="evenodd" clip-rule="evenodd" d="M39.2981 6.24852C37.1717 4.25984 34.6455 2.68396 31.8649 1.61159C29.0844 0.53922 26.1044 -0.00845257 23.0965 9.86115e-05C10.4732 9.86115e-05 0.197142 9.55798 0.192009 21.3081C0.186424 25.0496 1.24148 28.7256 3.24977 31.9621L0 43L12.1417 40.037C15.5026 41.739 19.2649 42.6298 23.0872 42.6285H23.0965C35.7187 42.6285 45.9938 33.0697 45.9999 21.3206C46.0076 18.5184 45.419 15.7428 44.2684 13.1553C43.1179 10.5678 41.4284 8.21999 39.2981 6.24852ZM23.0965 39.0321H23.0883C19.6808 39.033 16.3352 38.1806 13.3995 36.5635L12.7044 36.1795L5.49946 37.9379L7.42262 31.4025L6.96981 30.7306C5.0645 27.9109 4.05502 24.6432 4.05888 21.3081C4.05888 11.5438 12.6027 3.59942 23.1037 3.59942C28.1411 3.59101 32.9757 5.45334 36.5444 8.7768C40.113 12.1003 42.1233 16.6127 42.1331 21.3215C42.129 31.0867 33.5892 39.0321 23.0965 39.0321ZM33.5378 25.7684C32.9659 25.5015 30.1495 24.2135 29.6279 24.0359C29.1062 23.8583 28.7212 23.7691 28.3403 24.3027C27.9593 24.8364 26.8617 26.0304 26.528 26.3903C26.1943 26.7503 25.8606 26.7896 25.2887 26.5228C24.7167 26.256 22.8716 25.6945 20.6856 23.8804C18.9842 22.4685 17.8363 20.7255 17.5026 20.1928C17.1689 19.6601 17.4666 19.3712 17.7531 19.1063C18.0108 18.8673 18.325 18.4843 18.6115 18.1733C18.898 17.8623 18.9935 17.6397 19.1834 17.2845C19.3734 16.9294 19.2789 16.6184 19.1362 16.3525C18.9935 16.0867 17.8486 13.4654 17.3722 12.399C16.907 11.3605 16.4357 11.5016 16.0846 11.4853C15.7509 11.4699 15.3658 11.4661 14.9869 11.4661C14.6973 11.4731 14.4123 11.5359 14.1498 11.6505C13.8873 11.7652 13.6528 11.9291 13.4611 12.1322C12.9365 12.6659 11.4579 13.9559 11.4579 16.5743C11.4579 19.1926 13.5115 21.7266 13.7948 22.0817C14.0782 22.4368 17.8301 27.8147 23.5709 30.1211C24.6369 30.5479 25.7261 30.9221 26.834 31.2422C28.2047 31.6473 29.4523 31.5906 30.438 31.4534C31.5377 31.3008 33.8264 30.1653 34.3018 28.9214C34.7772 27.6774 34.7782 26.612 34.6355 26.3903C34.4928 26.1686 34.1108 26.0342 33.5378 25.7684Z" fill="#CCCCCC"/>
</svg>
